<svg fill="#000000" version="1.1" id="Layer_1" xmlns="http://www.w3.org/2000/svg" xmlns:xlink="http://www.w3.org/1999/xlink" viewBox="0 0 512 512" xml:space="preserve" width="50px" height="39px"><g id="SVGRepo_bgCarrier" stroke-width="0"></g><g id="SVGRepo_tracerCarrier" stroke-linecap="round" stroke-linejoin="round"></g><g id="SVGRepo_iconCarrier"> <g> <g> <g> <path d="M0,400.961h7.314v24.033h16.718v8.359H7.314v22.988H0v15.673h512v-15.673h-7.314v-22.988h-16.718v-8.359h16.718v-24.033 H512v-15.673H0V400.961z M22.988,400.961h466.024v8.359h-16.718v39.706h16.718v7.314H22.988v-7.314h16.718V409.32H22.988V400.961 z"></path> <rect x="56.424" y="416.634" width="15.673" height="25.078"></rect> <rect x="439.902" y="416.634" width="15.673" height="25.078"></rect> <rect x="246.596" y="416.634" width="15.673" height="25.078"></rect> <rect x="151.51" y="416.634" width="15.673" height="25.078"></rect> <rect x="343.771" y="416.634" width="15.673" height="25.078"></rect> <path d="M488.423,360.211v-0.001l21.249-269.156c0.583-7.379-3.384-14.15-10.106-17.249c-6.718-3.098-14.446-1.721-19.683,3.512 l-73.196,73.196c-4.412-21.614-23.57-37.925-46.468-37.925H330.78l-60.681-89c-3.258-4.78-8.658-7.634-14.443-7.634 c-5.786,0-11.186,2.853-14.444,7.634l-60.682,89h-29.438c-22.897,0-42.055,16.312-46.467,37.926L31.428,77.318 c-5.235-5.234-12.961-6.611-19.682-3.512C5.026,76.905,1.058,83.676,1.64,91.055L22.89,360.211H0v15.673h512v-15.673H488.423z M360.22,128.264v-0.001c17.507,0,31.751,14.244,31.751,31.751v5.217l-15.042,15.042l-35.462-52.01H360.22z M119.342,160.014 c0-17.507,14.243-31.751,31.75-31.751h18.753l-35.462,52.01l-15.041-15.041V160.014z M455.576,273.485v15.673h22.735 l-3.795,48.064h-10.581v15.673h9.343l-0.577,7.314H38.612l-0.578-7.314h4.807v-15.673h-6.044l-3.795-48.065h30.737v-15.673 H31.765l-14.5-183.662c-0.066-0.834,0.285-1.434,1.045-1.784c0.762-0.352,1.445-0.229,2.035,0.364l116.331,116.331 L254.162,32.418c0.445-0.652,1.058-0.789,1.495-0.789c0.436,0,1.049,0.137,1.494,0.789l117.485,172.314l116.33-116.331 c0.591-0.591,1.276-0.716,2.036-0.364c0.76,0.35,1.111,0.95,1.045,1.784l-14.5,183.663H455.576z"></path> <rect x="0" y="480.373" width="512" height="15.673"></rect> <path d="M87.307,192.502c0-13.153-10.7-23.854-23.853-23.854c-13.153,0-23.854,10.701-23.854,23.854 c0,13.153,10.701,23.853,23.854,23.853S87.307,205.655,87.307,192.502z M63.455,200.683c-4.511,0-8.181-3.67-8.181-8.18 c0-4.511,3.67-8.18,8.181-8.18c4.51,0,8.179,3.67,8.179,8.18C71.634,197.013,67.964,200.683,63.455,200.683z"></path> <path d="M255.656,136.272c13.153,0,23.854-10.701,23.854-23.854s-10.701-23.854-23.854-23.854 c-13.153,0-23.853,10.701-23.853,23.854S242.503,136.272,255.656,136.272z M255.656,104.237c4.511,0,8.18,3.67,8.18,8.18 c0,4.511-3.67,8.181-8.18,8.181c-4.51,0-8.18-3.67-8.18-8.181C247.477,107.907,251.145,104.237,255.656,104.237z"></path> <path d="M447.859,168.649c-13.153,0-23.854,10.701-23.854,23.854c0,13.153,10.701,23.853,23.854,23.853 c13.153,0,23.853-10.7,23.853-23.853C471.712,179.35,461.012,168.649,447.859,168.649z M447.859,200.682 c-4.511,0-8.181-3.67-8.181-8.18c0-4.511,3.67-8.18,8.181-8.18c4.51,0,8.179,3.67,8.179,8.18 C456.038,197.012,452.369,200.682,447.859,200.682z"></path> <path d="M282.508,183.107c-9.897,0-19.279,3.348-26.852,9.51c-7.573-6.161-16.956-9.51-26.852-9.51 c-11.39,0-22.1,4.436-30.155,12.491c-8.054,8.055-12.491,18.764-12.491,30.155c0,11.391,4.436,22.101,12.491,30.156 l57.008,57.008l57.009-57.008c16.626-16.626,16.626-43.683-0.002-60.309C304.609,187.543,293.899,183.107,282.508,183.107z M301.581,244.826l-45.924,45.925l-45.924-45.925c-5.094-5.094-7.901-11.867-7.901-19.071c0-7.206,2.807-13.979,7.902-19.074 c5.094-5.095,11.867-7.9,19.071-7.9c7.206,0,13.979,2.806,19.075,7.903l7.777,7.774l7.779-7.776 c5.094-5.095,11.867-7.9,19.073-7.9s13.979,2.806,19.073,7.9v0.001C312.098,217.198,312.098,234.309,301.581,244.826z"></path> <rect x="50.155" y="337.221" width="15.674" height="15.673"></rect> <rect x="73.143" y="337.221" width="15.673" height="15.673"></rect> <rect x="96.131" y="337.221" width="15.673" height="15.673"></rect> <rect x="417.959" y="337.221" width="15.673" height="15.673"></rect> <rect x="326.008" y="337.221" width="15.673" height="15.673"></rect> <rect x="348.996" y="337.221" width="15.673" height="15.673"></rect> <rect x="303.02" y="337.221" width="15.674" height="15.673"></rect> <rect x="394.971" y="337.221" width="15.673" height="15.673"></rect> <rect x="371.984" y="337.221" width="15.674" height="15.673"></rect> <rect x="440.947" y="337.221" width="15.673" height="15.673"></rect> <rect x="280.033" y="337.221" width="15.673" height="15.673"></rect> <rect x="257.045" y="337.221" width="15.673" height="15.673"></rect> <rect x="165.094" y="337.221" width="15.673" height="15.673"></rect> <rect x="188.082" y="337.221" width="15.673" height="15.673"></rect> <rect x="119.118" y="337.221" width="15.674" height="15.673"></rect> <rect x="142.106" y="337.221" width="15.673" height="15.673"></rect> <rect x="234.057" y="337.221" width="15.673" height="15.673"></rect> <rect x="211.069" y="337.221" width="15.673" height="15.673"></rect> </g> </g> </g> </g></svg>